<svg width="150" height="140" viewBox="0 0 150 140" fill="none" xmlns="http://www.w3.org/2000/svg">
<path d="M0.0100669 99.7954C0.0207007 99.8504 0.0374696 99.904 0.0600595 99.9553C0.070058 99.9853 0.0800566 100.025 0.0900551 100.055L11.4984 119.812L11.5284 119.842C11.5484 119.872 11.5684 119.902 11.5984 119.942C11.637 119.984 11.6806 120.021 11.7283 120.052C11.7583 120.072 11.7783 120.102 11.8083 120.122C11.8201 120.13 11.8342 120.134 11.8483 120.132C11.9615 120.196 12.0886 120.23 12.2183 120.232H57.3517L68.52 139.57L68.55 139.6C68.57 139.63 68.59 139.66 68.62 139.7C68.6586 139.741 68.7023 139.778 68.75 139.809C68.78 139.829 68.8 139.859 68.83 139.879C68.8417 139.887 68.8559 139.891 68.87 139.889C68.9831 139.953 69.1102 139.987 69.2399 139.989H137.68C137.813 139.987 137.943 139.953 138.06 139.889L138.15 139.829C138.235 139.773 138.309 139.702 138.37 139.62C138.38 139.6 138.41 139.59 138.42 139.57L149.828 119.812C149.838 119.792 149.838 119.782 149.848 119.762C149.866 119.731 149.879 119.697 149.888 119.662C149.898 119.622 149.908 119.592 149.918 119.552C149.926 119.516 149.93 119.479 149.928 119.442C149.928 119.422 149.938 119.412 149.938 119.392C149.938 119.372 149.928 119.362 149.928 119.342C149.928 119.302 149.918 119.272 149.918 119.233C149.918 119.193 149.898 119.163 149.888 119.123C149.876 119.089 149.863 119.055 149.848 119.023C149.838 119.003 149.838 118.993 149.828 118.973L127.261 79.8883L138.42 60.5511C138.43 60.5311 138.43 60.5211 138.44 60.5011C138.457 60.4697 138.471 60.4361 138.48 60.4011C138.49 60.3611 138.5 60.3311 138.51 60.2912C138.518 60.2551 138.521 60.2181 138.52 60.1812C138.52 60.1612 138.53 60.1512 138.53 60.1312C138.53 60.1112 138.52 60.1012 138.52 60.0812C138.52 60.0412 138.51 60.0112 138.51 59.9712C138.51 59.9312 138.49 59.9012 138.48 59.8612C138.468 59.8272 138.455 59.7938 138.44 59.7612C138.43 59.7412 138.43 59.7312 138.42 59.7112L104.215 0.429937C104.195 0.399941 104.165 0.379944 104.145 0.349949C104.111 0.304574 104.074 0.261177 104.035 0.219968C103.994 0.186635 103.95 0.156548 103.905 0.129981C103.861 0.100746 103.814 0.0772232 103.765 0.0599911C103.706 0.0408616 103.646 0.0274673 103.585 0.019997C103.555 0.019997 103.525 0 103.485 0H80.6682C80.6482 0 80.6382 0.00999852 80.6182 0.00999852C80.5782 0.00999852 80.5482 0.019997 80.5082 0.019997L80.3883 0.0499926C80.3583 0.0599912 80.3183 0.0799883 80.2883 0.0899868C80.2583 0.0999854 80.2583 0.0999853 80.2383 0.109984C80.2269 0.122334 80.2133 0.1325 80.1983 0.139979C80.166 0.160129 80.1358 0.183585 80.1083 0.209969C80.0792 0.234053 80.0524 0.260835 80.0283 0.289957C80.0083 0.319953 79.9783 0.349949 79.9583 0.379944C79.946 0.391338 79.9358 0.404892 79.9283 0.419938L57.3616 39.5142H35.0449C35.0249 39.5142 35.0149 39.5242 34.9949 39.5242C34.9549 39.5242 34.9249 39.5342 34.8849 39.5342C34.845 39.5342 34.805 39.5542 34.775 39.5642C34.741 39.5758 34.7076 39.5891 34.675 39.6042C34.655 39.6142 34.645 39.6142 34.625 39.6242C34.605 39.6342 34.605 39.6442 34.585 39.6542C34.5527 39.6743 34.5225 39.6978 34.495 39.7242C34.4659 39.7483 34.4391 39.775 34.415 39.8042C34.395 39.8342 34.365 39.8642 34.345 39.8941C34.3327 39.9055 34.3225 39.9191 34.315 39.9341L0.100054 99.2154C0.0855145 99.2472 0.0754212 99.2809 0.070058 99.3154C0.0488691 99.3672 0.0321441 99.4208 0.0200654 99.4754C0.0041943 99.5272 -0.00257179 99.5813 6.83191e-05 99.6354C-0.00158714 99.6889 0.00176025 99.7425 0.0100669 99.7954ZM102.995 1.69975L136.24 59.2813H115.383L82.128 1.69975H102.995ZM114.403 98.7955H93.5363L115.373 60.9611H136.24L114.403 98.7955ZM80.6682 2.53963L113.913 60.1212L92.0766 97.9556L81.6481 79.8783L92.8164 60.5411C92.8264 60.5211 92.8264 60.5111 92.8364 60.4911C92.854 60.4597 92.8675 60.4261 92.8764 60.3911C92.8864 60.3511 92.8964 60.3211 92.9064 60.2812C92.9147 60.2451 92.9181 60.2081 92.9164 60.1712C92.9164 60.1512 92.9264 60.1412 92.9264 60.1212C92.9264 60.1012 92.9164 60.0912 92.9164 60.0712C92.9164 60.0312 92.9064 60.0012 92.9064 59.9612C92.9064 59.9212 92.8864 59.8912 92.8764 59.8512C92.8648 59.8172 92.8515 59.7838 92.8364 59.7512C92.8264 59.7312 92.8264 59.7212 92.8164 59.7012L81.3981 39.9441C81.3781 39.9141 81.3481 39.8941 81.3281 39.8642C81.294 39.8188 81.2572 39.7754 81.2182 39.7342C81.1772 39.7008 81.1338 39.6707 81.0882 39.6442C81.0436 39.6169 80.9968 39.5935 80.9482 39.5742C80.8937 39.5546 80.8362 39.5444 80.7782 39.5442C80.7482 39.5442 80.7082 39.5242 80.6782 39.5242H59.3214L80.6682 2.53963ZM57.8616 41.214H80.1883L90.6268 59.2813H46.9432L36.5047 41.214H57.8616ZM35.0449 42.0538L45.4734 60.1212L12.2283 117.703L1.7998 99.6354L35.0449 42.0538ZM13.6981 118.543L46.9432 60.9611H90.6268L80.1883 79.0384H57.8616C57.8416 79.0384 57.8316 79.0484 57.8116 79.0484C57.7716 79.0484 57.7416 79.0584 57.7016 79.0584L57.5816 79.0884C57.5516 79.0984 57.5116 79.1184 57.4816 79.1284C57.4516 79.1384 57.4516 79.1384 57.4316 79.1484C57.4202 79.1607 57.4067 79.1709 57.3916 79.1784C57.3593 79.1985 57.3291 79.222 57.3017 79.2484C57.2725 79.2725 57.2458 79.2992 57.2217 79.3284C57.2017 79.3584 57.1717 79.3884 57.1517 79.4184C57.1417 79.4283 57.1217 79.4383 57.1217 79.4583L45.7134 99.2154C45.6988 99.2472 45.6887 99.2809 45.6834 99.3154C45.6622 99.3672 45.6455 99.4208 45.6334 99.4754C45.6247 99.5283 45.6214 99.5819 45.6234 99.6354C45.6217 99.6889 45.6251 99.7425 45.6334 99.7954C45.644 99.8504 45.6608 99.9041 45.6834 99.9553C45.6934 99.9853 45.7034 100.025 45.7134 100.055L56.3918 118.543H13.6981ZM137.22 138.3H70.7297L81.1582 120.232H147.648L137.22 138.3ZM69.2699 137.46L47.4331 99.6354L57.8716 81.558L79.7084 119.382L69.2699 137.46ZM147.648 118.543H81.1582L59.3214 80.7182H80.1883L91.3567 100.055L91.3867 100.085C91.4066 100.121 91.43 100.154 91.4566 100.185C91.4953 100.227 91.5389 100.264 91.5866 100.295C91.6166 100.315 91.6366 100.345 91.6666 100.365C91.6783 100.373 91.6925 100.377 91.7066 100.375C91.8198 100.439 91.9469 100.473 92.0766 100.475H114.893C115.026 100.473 115.156 100.439 115.273 100.375L115.363 100.315C115.448 100.259 115.522 100.188 115.583 100.105C115.593 100.085 115.623 100.075 115.633 100.055L126.312 81.558L147.648 118.543Z" fill="white"/>
</svg>
