<svg width="140" height="122" viewBox="0 0 140 122" fill="none" xmlns="http://www.w3.org/2000/svg">
<path d="M0.0199367 108.188C0.0320754 108.24 0.0487922 108.29 0.0699098 108.338C0.0753518 108.37 0.0854601 108.4 0.0998997 108.428L7.37775 121.046L7.40774 121.076C7.42788 121.108 7.45134 121.138 7.47773 121.166C7.51772 121.206 7.5577 121.236 7.59769 121.276C7.62768 121.296 7.63769 121.326 7.66768 121.336C7.67941 121.344 7.69355 121.347 7.70764 121.346C7.81619 121.401 7.9357 121.432 8.05755 121.436H131.891C132.013 121.432 132.132 121.401 132.241 121.346C132.271 121.326 132.291 121.306 132.321 121.286C132.402 121.235 132.47 121.167 132.521 121.086C132.531 121.066 132.551 121.056 132.571 121.036L139.859 108.418C139.869 108.408 139.869 108.388 139.879 108.378C139.898 108.348 139.911 108.314 139.919 108.278C139.929 108.248 139.939 108.208 139.949 108.178C139.957 108.146 139.96 108.112 139.959 108.078C139.959 108.058 139.969 108.048 139.969 108.028C139.969 108.008 139.959 107.998 139.959 107.979C139.959 107.959 139.949 107.909 139.949 107.879C139.949 107.849 139.929 107.809 139.919 107.779C139.908 107.744 139.895 107.711 139.879 107.679C139.869 107.669 139.869 107.649 139.859 107.639L77.947 0.389922C77.9295 0.364534 77.9094 0.341074 77.887 0.319936C77.8557 0.275342 77.8187 0.235011 77.777 0.19996C77.6986 0.142233 77.6149 0.0920204 77.5271 0.0499893C77.475 0.0342779 77.4214 0.0242221 77.3671 0.0199955C77.3372 0.0199955 77.3072 0 77.2672 0H62.7015C62.6815 0 62.6715 0.00999728 62.6515 0.00999728C62.6315 0.00999728 62.5815 0.0199955 62.5515 0.0199955L62.4415 0.0499893C62.4072 0.0606946 62.3738 0.074066 62.3416 0.0899813C62.3298 0.0979334 62.3157 0.101476 62.3016 0.0999795C62.2902 0.112329 62.2766 0.122494 62.2616 0.129973C62.2332 0.147517 62.2064 0.167595 62.1816 0.189962C62.1525 0.214044 62.1257 0.240825 62.1016 0.269946C62.0816 0.29994 62.0616 0.319936 62.0416 0.34993C62.0293 0.361323 62.0191 0.374876 62.0117 0.389922L0.0898929 107.649C0.0754533 107.677 0.065345 107.707 0.0599029 107.739C0.0387702 107.787 0.022053 107.837 0.00992988 107.889C0.0016236 107.938 -0.00173507 107.988 -7.6939e-05 108.038C0.00992012 108.088 0.00993964 108.138 0.0199367 108.188ZM76.8173 1.56969L137.829 107.249H31.2807L37.6588 96.2108H117.345C117.469 96.2098 117.59 96.1753 117.695 96.1109C117.705 96.1009 117.725 96.1109 117.735 96.1009C117.761 96.0834 117.784 96.0633 117.805 96.0409C117.848 96.007 117.888 95.9702 117.925 95.9309C117.955 95.8933 117.982 95.8531 118.005 95.8109C118.035 95.7729 118.056 95.7284 118.065 95.6809C118.086 95.6301 118.096 95.5758 118.095 95.521C118.095 95.491 118.115 95.461 118.115 95.421C118.115 95.401 118.105 95.391 118.105 95.371C118.1 95.3202 118.09 95.27 118.075 95.221C118.063 95.1697 118.046 95.1195 118.025 95.0711C118.015 95.0611 118.015 95.0411 118.005 95.0311L64.0511 1.56969H76.8173ZM131.451 119.866H9.42714L62.7015 27.5845L69.0796 38.6223L29.2313 107.639C29.2233 107.65 29.2198 107.664 29.2213 107.679C29.2002 107.727 29.1834 107.777 29.1713 107.829C29.1566 107.877 29.1465 107.928 29.1413 107.979C29.1413 107.998 29.1314 108.008 29.1314 108.028C29.1314 108.048 29.1513 108.088 29.1513 108.128C29.1565 108.183 29.1665 108.236 29.1813 108.288C29.2013 108.338 29.2213 108.378 29.2413 108.418C29.2656 108.46 29.2924 108.5 29.3213 108.538C29.3613 108.578 29.4013 108.608 29.4413 108.648C29.4713 108.668 29.4813 108.698 29.5112 108.708C29.5212 108.718 29.5412 108.708 29.5512 108.718C29.6591 108.777 29.7785 108.811 29.9011 108.818H137.809L131.451 119.866ZM101.41 94.6412H38.5586L69.9893 40.202L101.41 94.6412ZM62.7015 2.35953L115.976 94.6412H103.23L63.3913 25.6249C63.3789 25.6135 63.3687 25.6 63.3613 25.5849C63.3313 25.5449 63.2913 25.5049 63.2613 25.4649C63.226 25.4264 63.1856 25.3927 63.1413 25.3649C63.1299 25.3526 63.1164 25.3424 63.1013 25.335C63.073 25.3205 63.0427 25.3104 63.0114 25.305C62.963 25.2838 62.9128 25.2671 62.8614 25.255C62.7619 25.2416 62.661 25.2416 62.5615 25.255C62.5101 25.2671 62.4599 25.2838 62.4115 25.305C62.3802 25.3104 62.3499 25.3205 62.3216 25.335C62.3102 25.3473 62.2966 25.3575 62.2816 25.3649C62.2416 25.3949 62.2016 25.4349 62.1616 25.4649C62.1203 25.4975 62.0863 25.5384 62.0617 25.5849C62.0493 25.5963 62.0391 25.6099 62.0317 25.6249L8.07756 119.086L1.69943 108.048L62.7015 2.35953Z" fill="white"/>
</svg>
